<?xml version="1.0" encoding="UTF-8"?>
<svg width="470" height="450" version="1.1" xmlns="http://www.w3.org/2000/svg">
	<defs>
		<marker id="a" overflow="visible" orient="auto">
			<circle r="1.2"/>
		</marker>
	</defs>
	<g stroke="#000" stroke-dasharray="4, 12" stroke-linecap="round" stroke-width="4">
		<path d="m16 176.26c22.62 7.4105 45.239 14.821 67.857 22.23"/>
		<path d="m112.7 287.37c12.993-4.33 25.986-8.6598 38.978-12.989"/>
		<path d="m141.6 376.26c31.154 0 62.307-1e-5 93.459-1e-5"/>
		<path d="m99.6 433.8c90.266 0 180.53 1e-5 270.79 1e-5"/>
		<path d="m235 334.95c27.787-20.189 55.574-40.377 83.361-60.566"/>
		<path d="m328.5 376.26c9.6266-29.628 19.254-59.256 28.88-88.885"/>
		<path d="m386.3 198.49c22.62-7.4103 45.239-14.82 67.857-22.23"/>
		<path d="m286.6 176.39c8.0298-10.944 16.06-21.888 24.09-32.832"/>
		<path d="m183.5 176.39c-8.0292-10.943-16.059-21.887-24.09-32.832"/>
		<path d="m235 88.62v-71.531"/>
	</g>
	<path d="m83.839 198.49 75.61-54.935 75.61-54.935 75.61 54.935 75.61 54.935-28.88 88.885-38.978-12.989-31.841-97.997-103.04-2e-5 -31.841 97.997 83.362 60.566-1e-4 41.309h93.459l41.938 57.541 83.68-257.54-219.08-159.17-219.08 159.17 83.68 257.54 41.94-57.541-28.879-88.885z" fill="none" fill-opacity=".8" marker-end="url(#a)" marker-mid="url(#a)" marker-start="url(#a)" stroke="#f00" stroke-width="8"/>
</svg>
